# xmcd CD database file
#
# Track frame offsets:
#	150
#	17425
#	45852
#
# Disc length: 4440 seconds
#
# Revision: 2
# Processed by: cddbd v1.5.1PL0 Copyright (c) Steve Scherf et al.
# Submitted via: CDex 1.51
#
DISCID=11115603
DTITLE=day after tomorrow - ユリノハナ
DYEAR=2005
DGENRE=JPop
TTITLE0=ユリノハナ
TTITLE1=ユリノハナ -Instrumental-
TTITLE2=DATA
EXTD=YEAR: 2005
EXTT0=
EXTT1=
EXTT2=
PLAYORDER=
